# xmcd CD database file
#
# Track frame offsets:
#	150
#	19125
#	39975
#	62250
#	79350
#	102150
#	118725
#	140175
#	154650
#	205050
#	226650
#	245550
#	273150
#	293775
#	318000
#
# Disc length: 4729 seconds
#
# Revision: 0
# Processed by: cddbd v1.5.2PL0 Copyright (c) Steve Scherf et al.
# Submitted via: CDex 1.70beta2
#
DISCID=c512770f
DTITLE=Groovin Stuff - Live
DYEAR=2017
DGENRE=Blues
TTITLE0=Steady Rollin Boy
TTITLE1=Lousiana Blues
TTITLE2=Rest of your Life
TTITLE3=The Cross
TTITLE4=You do something to me
TTITLE5=Break Free
TTITLE6=Cheep Sunglasses
TTITLE7=Over the Limit
TTITLE8=Walkin on the Deadline
TTITLE9=UPS Blues
TTITLE10=You lie to me
TTITLE11=Boom Boom
TTITLE12=Session Blues
TTITLE13=The man
TTITLE14=All along the watchtower
EXTD=YEAR: 2017
EXTT0=
EXTT1=
EXTT2=
EXTT3=
EXTT4=
EXTT5=
EXTT6=
EXTT7=
EXTT8=
EXTT9=
EXTT10=
EXTT11=
EXTT12=
EXTT13=
EXTT14=
PLAYORDER=
